      <svg
        xmlns="http://www.w3.org/2000/svg"
        width="24"
        height="24"
        viewBox="0 0 16 16"
        fill="black"
      >
        <path
          fill-rule="evenodd"
          clip-rule="evenodd"
          d="M3.44739 4.14741C3.94746 3.64749 4.62562 3.36665 5.33272 3.36665C6.03983 3.36665 6.71798 3.64749 7.21806 4.14741L7.99939 4.92808L8.78072 4.14741C9.02671 3.89272 9.32097 3.68957 9.64631 3.54981C9.97165 3.41005 10.3216 3.33649 10.6757 3.33341C11.0297 3.33034 11.3809 3.39781 11.7086 3.53189C12.0363 3.66597 12.3341 3.86398 12.5844 4.11436C12.8348 4.36474 13.0328 4.66248 13.1669 4.9902C13.301 5.31793 13.3685 5.66907 13.3654 6.02315C13.3623 6.37723 13.2888 6.72715 13.149 7.05249C13.0092 7.37784 12.8061 7.67209 12.5514 7.91808L7.99939 12.4707L3.44739 7.91808C2.94747 7.41801 2.66663 6.73985 2.66663 6.03275C2.66663 5.32564 2.94747 4.64749 3.44739 4.14741Z"
          fill="#C9C9C9"
        />
      </svg>