<svg width="24" height="24" viewBox="0 0 24 24" fill="none" xmlns="http://www.w3.org/2000/svg">
<g clip-path="url(#clip0_63_1506)">
<path d="M5.50008 17.0002C6.3285 17.0002 7.00008 16.3287 7.00008 15.5002C7.00008 14.6718 6.3285 14.0002 5.50008 14.0002C4.67165 14.0002 4.00008 14.6718 4.00008 15.5002C4.00008 16.3287 4.67165 17.0002 5.50008 17.0002Z" fill="#2F2F2F"/>
<path d="M19 3H4.99999C3.6744 3.00159 2.40355 3.52888 1.46621 4.46622C0.528874 5.40356 0.00158023 6.67441 -7.62939e-06 8L-7.62939e-06 16C0.00158023 17.3256 0.528874 18.5964 1.46621 19.5338C2.40355 20.4711 3.6744 20.9984 4.99999 21H19C20.3256 20.9984 21.5964 20.4711 22.5338 19.5338C23.4711 18.5964 23.9984 17.3256 24 16V8C23.9984 6.67441 23.4711 5.40356 22.5338 4.46622C21.5964 3.52888 20.3256 3.00159 19 3ZM4.99999 5H19C19.7956 5 20.5587 5.31607 21.1213 5.87868C21.6839 6.44129 22 7.20435 22 8H1.99999C1.99999 7.20435 2.31606 6.44129 2.87867 5.87868C3.44128 5.31607 4.20434 5 4.99999 5ZM19 19H4.99999C4.20434 19 3.44128 18.6839 2.87867 18.1213C2.31606 17.5587 1.99999 16.7956 1.99999 16V10H22V16C22 16.7956 21.6839 17.5587 21.1213 18.1213C20.5587 18.6839 19.7956 19 19 19Z" fill="#2F2F2F"/>
</g>
<defs>
<clipPath id="clip0_63_1506">
<rect width="24" height="24" fill="white"/>
</clipPath>
</defs>
</svg>
