<svg width="24" height="24" viewBox="0 0 24 24" fill="none" xmlns="http://www.w3.org/2000/svg">
<g clip-path="url(#clip0_71_741)">
<path d="M23.2709 9.41879C21.7199 6.89279 18.1919 2.65479 11.9999 2.65479C5.80787 2.65479 2.27987 6.89279 0.728868 9.41879C0.249396 10.1943 -0.00457764 11.088 -0.00457764 11.9998C-0.00457764 12.9115 0.249396 13.8053 0.728868 14.5808C2.27987 17.1068 5.80787 21.3448 11.9999 21.3448C18.1919 21.3448 21.7199 17.1068 23.2709 14.5808C23.7503 13.8053 24.0043 12.9115 24.0043 11.9998C24.0043 11.088 23.7503 10.1943 23.2709 9.41879ZM21.5659 13.5338C20.2339 15.6998 17.2189 19.3448 11.9999 19.3448C6.78087 19.3448 3.76587 15.6998 2.43387 13.5338C2.149 13.0728 1.99812 12.5417 1.99812 11.9998C1.99812 11.4579 2.149 10.9267 2.43387 10.4658C3.76587 8.29979 6.78087 4.65479 11.9999 4.65479C17.2189 4.65479 20.2339 8.29578 21.5659 10.4658C21.8507 10.9267 22.0016 11.4579 22.0016 11.9998C22.0016 12.5417 21.8507 13.0728 21.5659 13.5338Z" fill="#2F2F2F"/>
<path d="M11.9998 6.99976C11.0109 6.99976 10.0442 7.293 9.22194 7.84241C8.39969 8.39181 7.75883 9.17271 7.38039 10.0863C7.00195 11 6.90294 12.0053 7.09586 12.9752C7.28879 13.9451 7.76499 14.836 8.46425 15.5353C9.16352 16.2346 10.0544 16.7108 11.0243 16.9037C11.9942 17.0966 12.9996 16.9976 13.9132 16.6192C14.8268 16.2407 15.6077 15.5999 16.1571 14.7776C16.7065 13.9554 16.9998 12.9887 16.9998 11.9998C16.9982 10.6742 16.4709 9.40331 15.5336 8.46598C14.5962 7.52864 13.3254 7.00134 11.9998 6.99976ZM11.9998 14.9998C11.4064 14.9998 10.8264 14.8238 10.3331 14.4942C9.83973 14.1645 9.45521 13.696 9.22815 13.1478C9.00109 12.5996 8.94168 11.9964 9.05743 11.4145C9.17319 10.8325 9.45891 10.298 9.87847 9.87844C10.298 9.45888 10.8326 9.17316 11.4145 9.0574C11.9965 8.94164 12.5997 9.00105 13.1478 9.22812C13.696 9.45518 14.1646 9.8397 14.4942 10.333C14.8238 10.8264 14.9998 11.4064 14.9998 11.9998C14.9998 12.7954 14.6837 13.5585 14.1211 14.1211C13.5585 14.6837 12.7954 14.9998 11.9998 14.9998Z" fill="#2F2F2F"/>
</g>
<defs>
<clipPath id="clip0_71_741">
<rect width="24" height="24" fill="white"/>
</clipPath>
</defs>
</svg>
