<svg width="16" height="16" viewBox="0 0 16 16" fill="none" xmlns="http://www.w3.org/2000/svg">
<path d="M2.66675 4H13.3334M10.6667 4L10.4863 3.45871C10.3115 2.93417 10.224 2.67189 10.0619 2.47799C9.9187 2.30676 9.7348 2.17421 9.52708 2.09252C9.29184 2 9.01538 2 8.46246 2H7.5377C6.98478 2 6.70832 2 6.47309 2.09252C6.26536 2.17421 6.08147 2.30676 5.93827 2.47799C5.77612 2.67189 5.68869 2.93417 5.51384 3.45871L5.33341 4M12.0001 4V10.8C12.0001 11.9201 12.0001 12.4802 11.7821 12.908C11.5903 13.2843 11.2844 13.5903 10.9081 13.782C10.4802 14 9.92019 14 8.80008 14H7.20008C6.07998 14 5.51992 14 5.0921 13.782C4.71578 13.5903 4.40982 13.2843 4.21807 12.908C4.00008 12.4802 4.00008 11.9201 4.00008 10.8V4M9.33341 6.66667V11.3333M6.66675 6.66667V11.3333" stroke="#C9C9C9" stroke-width="1.33333" stroke-linecap="round" stroke-linejoin="round"/>
</svg>
